<svg width="85" height="96" viewBox="0 0 85 96" fill="none" xmlns="http://www.w3.org/2000/svg">
<g clip-path="url(#clip0_2312_89)">
<path d="M28.1619 78.1124C11.2647 78.1124 0 68.8908 0 55.1126H1.08315C1.08315 68.1314 11.698 76.919 27.8369 76.919C39.4266 76.919 47.3336 71.2776 47.3336 61.9475C47.3336 38.9477 0.974833 50.1221 0.974833 21.6979C0.974833 8.78764 10.9398 0 25.7789 0C40.4014 0 50.2581 8.35369 50.2581 20.83H49.1749C49.1749 9.00462 39.9682 1.19338 26.3205 1.19338C14.8391 1.19338 7.47372 6.94332 7.47372 15.8395C7.47372 38.4053 53.9408 27.8818 53.9408 56.306C53.9408 69.4332 43.4343 78.1124 28.1619 78.1124Z" fill="#0D404C"/>
<path fill-rule="evenodd" clip-rule="evenodd" d="M38.8546 19.7695C66.6588 19.7695 84.0226 34.6895 84.0226 57.8863C84.0226 81.083 66.6588 96.003 38.8546 96.003H15.2266V75.5542L20.8046 76.4839L24.171 77.4755H25.6669V94.9139H38.8546C61.4936 94.9139 72.4833 80.8652 72.4833 57.8863C72.4833 34.9073 61.4936 20.8586 38.8546 20.8586H25.6669V41.1484L15.2266 36.7525V19.7695H38.8546Z" fill="#0D404C"/>
<path d="M20.4819 51.9062L20.7452 54.2716C21.0259 56.7937 22.9463 58.8231 25.4491 59.2425C22.9477 59.6555 21.0261 61.6816 20.7461 64.2013L20.4819 66.5788L20.2085 64.1182C19.9338 61.6459 18.0525 59.6558 15.5996 59.2425C18.0525 58.8293 19.9338 56.8392 20.2085 54.3669L20.4819 51.9062Z" fill="#0D404C"/>
</g>
<defs>
<clipPath id="clip0_2312_89">
<rect width="85" height="96" fill="white"/>
</clipPath>
</defs>
</svg>
